<svg width="42" height="42" viewBox="0 0 42 42" fill="none" xmlns="http://www.w3.org/2000/svg">
<path d="M32.7824 23.2432L14.4294 35.5159C14.0057 35.7989 13.51 35.9646 12.9958 35.9949C12.4816 36.0253 11.9687 35.9192 11.5124 35.6881C11.0562 35.4571 10.6741 35.1099 10.4075 34.6841C10.1409 34.2584 10 33.7703 10 33.2728V8.72725C10 8.22969 10.1409 7.7416 10.4075 7.31585C10.6741 6.8901 11.0562 6.54291 11.5124 6.31186C11.9687 6.08082 12.4816 5.97473 12.9958 6.00508C13.51 6.03543 14.0057 6.20107 14.4294 6.48406L32.7824 18.7568C33.158 19.0077 33.4651 19.3429 33.6771 19.7336C33.8892 20.1243 34 20.5589 34 21C34 21.4411 33.8892 21.8757 33.6771 22.2664C33.4651 22.6571 33.158 22.9923 32.7824 23.2432Z" fill="#0F2FFF"/>
</svg>
