<svg width="1840" height="876" viewBox="0 0 1840 876" fill="none" xmlns="http://www.w3.org/2000/svg">
<g clip-path="url(#clip0_2736_39)">
<path d="M0 273.594H1840" stroke="#633E2B" stroke-width="0.1" stroke-miterlimit="10"/>
<path d="M0 273.594H1840" stroke="#DFCEC4" stroke-width="0.1" stroke-miterlimit="10"/>
<path d="M0 285.633H1840" stroke="#633E2B" stroke-width="0.1" stroke-miterlimit="10"/>
<path d="M0 285.633H1840" stroke="#DFCEC4" stroke-width="0.1" stroke-miterlimit="10"/>
<path d="M0 261.555H1840" stroke="#633E2B" stroke-width="0.1" stroke-miterlimit="10"/>
<path d="M0 261.555H1840" stroke="#DFCEC4" stroke-width="0.1" stroke-miterlimit="10"/>
<path d="M0 249.515H1840" stroke="#633E2B" stroke-width="0.1" stroke-miterlimit="10"/>
<path d="M0 249.515H1840" stroke="#DFCEC4" stroke-width="0.1" stroke-miterlimit="10"/>
<path d="M0 237.476H1840" stroke="#633E2B" stroke-width="0.1" stroke-miterlimit="10"/>
<path d="M0 237.476H1840" stroke="#DFCEC4" stroke-width="0.1" stroke-miterlimit="10"/>
<path d="M0 225.437H1840" stroke="#633E2B" stroke-width="0.1" stroke-miterlimit="10"/>
<path d="M0 225.437H1840" stroke="#DFCEC4" stroke-width="0.1" stroke-miterlimit="10"/>
<path d="M0 213.398H1840" stroke="#633E2B" stroke-width="0.1" stroke-miterlimit="10"/>
<path d="M0 213.398H1840" stroke="#DFCEC4" stroke-width="0.1" stroke-miterlimit="10"/>
<path d="M0 201.358H1840" stroke="#633E2B" stroke-width="0.1" stroke-miterlimit="10"/>
<path d="M0 201.358H1840" stroke="#DFCEC4" stroke-width="0.1" stroke-miterlimit="10"/>
<path d="M0 189.319H1840" stroke="#633E2B" stroke-width="0.1" stroke-miterlimit="10"/>
<path d="M0 189.319H1840" stroke="#DFCEC4" stroke-width="0.1" stroke-miterlimit="10"/>
<path d="M0 177.28H1840" stroke="#633E2B" stroke-width="0.1" stroke-miterlimit="10"/>
<path d="M0 177.28H1840" stroke="#DFCEC4" stroke-width="0.1" stroke-miterlimit="10"/>
<path d="M0 165.241H1840" stroke="#633E2B" stroke-width="0.1" stroke-miterlimit="10"/>
<path d="M0 165.241H1840" stroke="#DFCEC4" stroke-width="0.1" stroke-miterlimit="10"/>
<path d="M0 153.201H1840" stroke="#633E2B" stroke-width="0.1" stroke-miterlimit="10"/>
<path d="M0 153.201H1840" stroke="#DFCEC4" stroke-width="0.1" stroke-miterlimit="10"/>
<path d="M0 141.162H1840" stroke="#633E2B" stroke-width="0.1" stroke-miterlimit="10"/>
<path d="M0 141.162H1840" stroke="#DFCEC4" stroke-width="0.1" stroke-miterlimit="10"/>
<path d="M0 129.123H1840" stroke="#633E2B" stroke-width="0.1" stroke-miterlimit="10"/>
<path d="M0 129.123H1840" stroke="#DFCEC4" stroke-width="0.1" stroke-miterlimit="10"/>
<path d="M0 117.084H1840" stroke="#633E2B" stroke-width="0.1" stroke-miterlimit="10"/>
<path d="M0 117.084H1840" stroke="#DFCEC4" stroke-width="0.1" stroke-miterlimit="10"/>
<path d="M0 105.044H1840" stroke="#633E2B" stroke-width="0.1" stroke-miterlimit="10"/>
<path d="M0 105.044H1840" stroke="#DFCEC4" stroke-width="0.1" stroke-miterlimit="10"/>
<path d="M0 93.0051H1840" stroke="#633E2B" stroke-width="0.1" stroke-miterlimit="10"/>
<path d="M0 93.0051H1840" stroke="#DFCEC4" stroke-width="0.1" stroke-miterlimit="10"/>
<path d="M0 44.8481H1840" stroke="#633E2B" stroke-width="0.1" stroke-miterlimit="10"/>
<path d="M0 44.8481H1840" stroke="#DFCEC4" stroke-width="0.1" stroke-miterlimit="10"/>
<path d="M0 80.9658H1840" stroke="#633E2B" stroke-width="0.1" stroke-miterlimit="10"/>
<path d="M0 80.9658H1840" stroke="#DFCEC4" stroke-width="0.1" stroke-miterlimit="10"/>
<path d="M0 32.8088H1840" stroke="#633E2B" stroke-width="0.1" stroke-miterlimit="10"/>
<path d="M0 32.8088H1840" stroke="#DFCEC4" stroke-width="0.1" stroke-miterlimit="10"/>
<path d="M0 68.9265H1840" stroke="#633E2B" stroke-width="0.1" stroke-miterlimit="10"/>
<path d="M0 68.9265H1840" stroke="#DFCEC4" stroke-width="0.1" stroke-miterlimit="10"/>
<path d="M0 20.7695H1840" stroke="#633E2B" stroke-width="0.1" stroke-miterlimit="10"/>
<path d="M0 20.7695H1840" stroke="#DFCEC4" stroke-width="0.1" stroke-miterlimit="10"/>
<path d="M0 56.8875H1840" stroke="#633E2B" stroke-width="0.1" stroke-miterlimit="10"/>
<path d="M0 56.8875H1840" stroke="#DFCEC4" stroke-width="0.1" stroke-miterlimit="10"/>
<path d="M0 8.73047H1840" stroke="#633E2B" stroke-width="0.1" stroke-miterlimit="10"/>
<path d="M0 8.73047H1840" stroke="#DFCEC4" stroke-width="0.1" stroke-miterlimit="10"/>
<path d="M0 562.536H1840" stroke="#633E2B" stroke-width="0.1" stroke-miterlimit="10"/>
<path d="M0 562.536H1840" stroke="#DFCEC4" stroke-width="0.1" stroke-miterlimit="10"/>
<path d="M0 574.576H1840" stroke="#633E2B" stroke-width="0.1" stroke-miterlimit="10"/>
<path d="M0 574.576H1840" stroke="#DFCEC4" stroke-width="0.1" stroke-miterlimit="10"/>
<path d="M0 550.497H1840" stroke="#633E2B" stroke-width="0.1" stroke-miterlimit="10"/>
<path d="M0 550.497H1840" stroke="#DFCEC4" stroke-width="0.1" stroke-miterlimit="10"/>
<path d="M0 538.458H1840" stroke="#633E2B" stroke-width="0.1" stroke-miterlimit="10"/>
<path d="M0 538.458H1840" stroke="#DFCEC4" stroke-width="0.1" stroke-miterlimit="10"/>
<path d="M0 526.418H1840" stroke="#633E2B" stroke-width="0.1" stroke-miterlimit="10"/>
<path d="M0 526.418H1840" stroke="#DFCEC4" stroke-width="0.1" stroke-miterlimit="10"/>
<path d="M0 514.379H1840" stroke="#633E2B" stroke-width="0.1" stroke-miterlimit="10"/>
<path d="M0 514.379H1840" stroke="#DFCEC4" stroke-width="0.1" stroke-miterlimit="10"/>
<path d="M0 502.34H1840" stroke="#633E2B" stroke-width="0.1" stroke-miterlimit="10"/>
<path d="M0 502.34H1840" stroke="#DFCEC4" stroke-width="0.1" stroke-miterlimit="10"/>
<path d="M0 490.301H1840" stroke="#633E2B" stroke-width="0.1" stroke-miterlimit="10"/>
<path d="M0 490.301H1840" stroke="#DFCEC4" stroke-width="0.1" stroke-miterlimit="10"/>
<path d="M0 478.261H1840" stroke="#633E2B" stroke-width="0.1" stroke-miterlimit="10"/>
<path d="M0 478.261H1840" stroke="#DFCEC4" stroke-width="0.1" stroke-miterlimit="10"/>
<path d="M0 466.222H1840" stroke="#633E2B" stroke-width="0.1" stroke-miterlimit="10"/>
<path d="M0 466.222H1840" stroke="#DFCEC4" stroke-width="0.1" stroke-miterlimit="10"/>
<path d="M0 454.183H1840" stroke="#633E2B" stroke-width="0.1" stroke-miterlimit="10"/>
<path d="M0 454.183H1840" stroke="#DFCEC4" stroke-width="0.1" stroke-miterlimit="10"/>
<path d="M0 442.144H1840" stroke="#633E2B" stroke-width="0.1" stroke-miterlimit="10"/>
<path d="M0 442.144H1840" stroke="#DFCEC4" stroke-width="0.1" stroke-miterlimit="10"/>
<path d="M0 430.104H1840" stroke="#633E2B" stroke-width="0.1" stroke-miterlimit="10"/>
<path d="M0 430.104H1840" stroke="#DFCEC4" stroke-width="0.1" stroke-miterlimit="10"/>
<path d="M0 418.065H1840" stroke="#633E2B" stroke-width="0.1" stroke-miterlimit="10"/>
<path d="M0 418.065H1840" stroke="#DFCEC4" stroke-width="0.1" stroke-miterlimit="10"/>
<path d="M0 406.026H1840" stroke="#633E2B" stroke-width="0.1" stroke-miterlimit="10"/>
<path d="M0 406.026H1840" stroke="#DFCEC4" stroke-width="0.1" stroke-miterlimit="10"/>
<path d="M0 393.987H1840" stroke="#633E2B" stroke-width="0.1" stroke-miterlimit="10"/>
<path d="M0 393.987H1840" stroke="#DFCEC4" stroke-width="0.1" stroke-miterlimit="10"/>
<path d="M0 381.947H1840" stroke="#633E2B" stroke-width="0.1" stroke-miterlimit="10"/>
<path d="M0 381.947H1840" stroke="#DFCEC4" stroke-width="0.1" stroke-miterlimit="10"/>
<path d="M0 333.79H1840" stroke="#633E2B" stroke-width="0.1" stroke-miterlimit="10"/>
<path d="M0 333.79H1840" stroke="#DFCEC4" stroke-width="0.1" stroke-miterlimit="10"/>
<path d="M0 369.908H1840" stroke="#633E2B" stroke-width="0.1" stroke-miterlimit="10"/>
<path d="M0 369.908H1840" stroke="#DFCEC4" stroke-width="0.1" stroke-miterlimit="10"/>
<path d="M0 321.751H1840" stroke="#633E2B" stroke-width="0.1" stroke-miterlimit="10"/>
<path d="M0 321.751H1840" stroke="#DFCEC4" stroke-width="0.1" stroke-miterlimit="10"/>
<path d="M0 357.869H1840" stroke="#633E2B" stroke-width="0.1" stroke-miterlimit="10"/>
<path d="M0 357.869H1840" stroke="#DFCEC4" stroke-width="0.1" stroke-miterlimit="10"/>
<path d="M0 309.712H1840" stroke="#633E2B" stroke-width="0.1" stroke-miterlimit="10"/>
<path d="M0 309.712H1840" stroke="#DFCEC4" stroke-width="0.1" stroke-miterlimit="10"/>
<path d="M0 345.83H1840" stroke="#633E2B" stroke-width="0.1" stroke-miterlimit="10"/>
<path d="M0 345.83H1840" stroke="#DFCEC4" stroke-width="0.1" stroke-miterlimit="10"/>
<path d="M0 297.673H1840" stroke="#633E2B" stroke-width="0.1" stroke-miterlimit="10"/>
<path d="M0 297.673H1840" stroke="#DFCEC4" stroke-width="0.1" stroke-miterlimit="10"/>
<path d="M0 646.811H1840" stroke="#633E2B" stroke-width="0.1" stroke-miterlimit="10"/>
<path d="M0 646.811H1840" stroke="#DFCEC4" stroke-width="0.1" stroke-miterlimit="10"/>
<path d="M0 634.772H1840" stroke="#633E2B" stroke-width="0.1" stroke-miterlimit="10"/>
<path d="M0 634.772H1840" stroke="#DFCEC4" stroke-width="0.1" stroke-miterlimit="10"/>
<path d="M0 622.732H1840" stroke="#633E2B" stroke-width="0.1" stroke-miterlimit="10"/>
<path d="M0 622.732H1840" stroke="#DFCEC4" stroke-width="0.1" stroke-miterlimit="10"/>
<path d="M0 610.693H1840" stroke="#633E2B" stroke-width="0.1" stroke-miterlimit="10"/>
<path d="M0 610.693H1840" stroke="#DFCEC4" stroke-width="0.1" stroke-miterlimit="10"/>
<path d="M0 598.654H1840" stroke="#633E2B" stroke-width="0.1" stroke-miterlimit="10"/>
<path d="M0 598.654H1840" stroke="#DFCEC4" stroke-width="0.1" stroke-miterlimit="10"/>
<path d="M0 586.615H1840" stroke="#633E2B" stroke-width="0.1" stroke-miterlimit="10"/>
<path d="M0 586.615H1840" stroke="#DFCEC4" stroke-width="0.1" stroke-miterlimit="10"/>
<path d="M0 839.738H1840" stroke="#633E2B" stroke-width="0.1" stroke-miterlimit="10"/>
<path d="M0 839.738H1840" stroke="#DFCEC4" stroke-width="0.1" stroke-miterlimit="10"/>
<path d="M0 851.777H1840" stroke="#633E2B" stroke-width="0.1" stroke-miterlimit="10"/>
<path d="M0 851.777H1840" stroke="#DFCEC4" stroke-width="0.1" stroke-miterlimit="10"/>
<path d="M0 827.699H1840" stroke="#633E2B" stroke-width="0.1" stroke-miterlimit="10"/>
<path d="M0 827.699H1840" stroke="#DFCEC4" stroke-width="0.1" stroke-miterlimit="10"/>
<path d="M0 815.66H1840" stroke="#633E2B" stroke-width="0.1" stroke-miterlimit="10"/>
<path d="M0 815.66H1840" stroke="#DFCEC4" stroke-width="0.1" stroke-miterlimit="10"/>
<path d="M0 803.62H1840" stroke="#633E2B" stroke-width="0.1" stroke-miterlimit="10"/>
<path d="M0 803.62H1840" stroke="#DFCEC4" stroke-width="0.1" stroke-miterlimit="10"/>
<path d="M0 791.581H1840" stroke="#633E2B" stroke-width="0.1" stroke-miterlimit="10"/>
<path d="M0 791.581H1840" stroke="#DFCEC4" stroke-width="0.1" stroke-miterlimit="10"/>
<path d="M0 779.542H1840" stroke="#633E2B" stroke-width="0.1" stroke-miterlimit="10"/>
<path d="M0 779.542H1840" stroke="#DFCEC4" stroke-width="0.1" stroke-miterlimit="10"/>
<path d="M0 767.502H1840" stroke="#633E2B" stroke-width="0.1" stroke-miterlimit="10"/>
<path d="M0 767.502H1840" stroke="#DFCEC4" stroke-width="0.1" stroke-miterlimit="10"/>
<path d="M0 755.463H1840" stroke="#633E2B" stroke-width="0.1" stroke-miterlimit="10"/>
<path d="M0 755.463H1840" stroke="#DFCEC4" stroke-width="0.1" stroke-miterlimit="10"/>
<path d="M0 743.424H1840" stroke="#633E2B" stroke-width="0.1" stroke-miterlimit="10"/>
<path d="M0 743.424H1840" stroke="#DFCEC4" stroke-width="0.1" stroke-miterlimit="10"/>
<path d="M0 731.385H1840" stroke="#633E2B" stroke-width="0.1" stroke-miterlimit="10"/>
<path d="M0 731.385H1840" stroke="#DFCEC4" stroke-width="0.1" stroke-miterlimit="10"/>
<path d="M0 719.345H1840" stroke="#633E2B" stroke-width="0.1" stroke-miterlimit="10"/>
<path d="M0 719.345H1840" stroke="#DFCEC4" stroke-width="0.1" stroke-miterlimit="10"/>
<path d="M0 707.306H1840" stroke="#633E2B" stroke-width="0.1" stroke-miterlimit="10"/>
<path d="M0 707.306H1840" stroke="#DFCEC4" stroke-width="0.1" stroke-miterlimit="10"/>
<path d="M0 695.267H1840" stroke="#633E2B" stroke-width="0.1" stroke-miterlimit="10"/>
<path d="M0 695.267H1840" stroke="#DFCEC4" stroke-width="0.1" stroke-miterlimit="10"/>
<path d="M0 683.228H1840" stroke="#633E2B" stroke-width="0.1" stroke-miterlimit="10"/>
<path d="M0 683.228H1840" stroke="#DFCEC4" stroke-width="0.1" stroke-miterlimit="10"/>
<path d="M0 671.188H1840" stroke="#633E2B" stroke-width="0.1" stroke-miterlimit="10"/>
<path d="M0 671.188H1840" stroke="#DFCEC4" stroke-width="0.1" stroke-miterlimit="10"/>
<path d="M0 659.149H1840" stroke="#633E2B" stroke-width="0.1" stroke-miterlimit="10"/>
<path d="M0 659.149H1840" stroke="#DFCEC4" stroke-width="0.1" stroke-miterlimit="10"/>
<path d="M0 863.816H1840" stroke="#633E2B" stroke-width="0.1" stroke-miterlimit="10"/>
<path d="M0 863.816H1840" stroke="#DFCEC4" stroke-width="0.1" stroke-miterlimit="10"/>
<path d="M469.531 0.000244141V875.856" stroke="#633E2B" stroke-width="0.1" stroke-miterlimit="10"/>
<path d="M469.531 0.000244141V875.856" stroke="#DFCEC4" stroke-width="0.1" stroke-miterlimit="10"/>
<path d="M457.492 0.000244141V875.856" stroke="#633E2B" stroke-width="0.1" stroke-miterlimit="10"/>
<path d="M457.492 0.000244141V875.856" stroke="#DFCEC4" stroke-width="0.1" stroke-miterlimit="10"/>
<path d="M445.453 0.000244141V875.856" stroke="#633E2B" stroke-width="0.1" stroke-miterlimit="10"/>
<path d="M445.453 0.000244141V875.856" stroke="#DFCEC4" stroke-width="0.1" stroke-miterlimit="10"/>
<path d="M902.945 0.000244141V875.856" stroke="#633E2B" stroke-width="0.1" stroke-miterlimit="10"/>
<path d="M902.945 0.000244141V875.856" stroke="#DFCEC4" stroke-width="0.1" stroke-miterlimit="10"/>
<path d="M433.414 0.000244141V875.856" stroke="#633E2B" stroke-width="0.1" stroke-miterlimit="10"/>
<path d="M433.414 0.000244141V875.856" stroke="#DFCEC4" stroke-width="0.1" stroke-miterlimit="10"/>
<path d="M890.904 0.000244141V875.856" stroke="#633E2B" stroke-width="0.1" stroke-miterlimit="10"/>
<path d="M890.904 0.000244141V875.856" stroke="#DFCEC4" stroke-width="0.1" stroke-miterlimit="10"/>
<path d="M421.375 0.000244141V875.856" stroke="#633E2B" stroke-width="0.1" stroke-miterlimit="10"/>
<path d="M421.375 0.000244141V875.856" stroke="#DFCEC4" stroke-width="0.1" stroke-miterlimit="10"/>
<path d="M878.865 0.000244141V875.856" stroke="#633E2B" stroke-width="0.1" stroke-miterlimit="10"/>
<path d="M878.865 0.000244141V875.856" stroke="#DFCEC4" stroke-width="0.1" stroke-miterlimit="10"/>
<path d="M409.334 0.000244141V875.856" stroke="#633E2B" stroke-width="0.1" stroke-miterlimit="10"/>
<path d="M409.334 0.000244141V875.856" stroke="#DFCEC4" stroke-width="0.1" stroke-miterlimit="10"/>
<path d="M866.826 0.000244141V875.856" stroke="#633E2B" stroke-width="0.1" stroke-miterlimit="10"/>
<path d="M866.826 0.000244141V875.856" stroke="#DFCEC4" stroke-width="0.1" stroke-miterlimit="10"/>
<path d="M397.295 0.000244141V875.856" stroke="#633E2B" stroke-width="0.1" stroke-miterlimit="10"/>
<path d="M397.295 0.000244141V875.856" stroke="#DFCEC4" stroke-width="0.1" stroke-miterlimit="10"/>
<path d="M854.787 0.000244141V875.856" stroke="#633E2B" stroke-width="0.1" stroke-miterlimit="10"/>
<path d="M854.787 0.000244141V875.856" stroke="#DFCEC4" stroke-width="0.1" stroke-miterlimit="10"/>
<path d="M385.256 0.000244141V875.856" stroke="#633E2B" stroke-width="0.1" stroke-miterlimit="10"/>
<path d="M385.256 0.000244141V875.856" stroke="#DFCEC4" stroke-width="0.1" stroke-miterlimit="10"/>
<path d="M842.748 0.000244141V875.856" stroke="#633E2B" stroke-width="0.1" stroke-miterlimit="10"/>
<path d="M842.748 0.000244141V875.856" stroke="#DFCEC4" stroke-width="0.1" stroke-miterlimit="10"/>
<path d="M373.217 0.000244141V875.856" stroke="#633E2B" stroke-width="0.1" stroke-miterlimit="10"/>
<path d="M373.217 0.000244141V875.856" stroke="#DFCEC4" stroke-width="0.1" stroke-miterlimit="10"/>
<path d="M361.178 0.000244141V875.856" stroke="#633E2B" stroke-width="0.1" stroke-miterlimit="10"/>
<path d="M361.178 0.000244141V875.856" stroke="#DFCEC4" stroke-width="0.1" stroke-miterlimit="10"/>
<path d="M830.709 0.000244141V875.856" stroke="#633E2B" stroke-width="0.1" stroke-miterlimit="10"/>
<path d="M830.709 0.000244141V875.856" stroke="#DFCEC4" stroke-width="0.1" stroke-miterlimit="10"/>
<path d="M349.139 0.000244141V875.856" stroke="#633E2B" stroke-width="0.1" stroke-miterlimit="10"/>
<path d="M349.139 0.000244141V875.856" stroke="#DFCEC4" stroke-width="0.1" stroke-miterlimit="10"/>
<path d="M818.67 0.000244141V875.856" stroke="#633E2B" stroke-width="0.1" stroke-miterlimit="10"/>
<path d="M818.67 0.000244141V875.856" stroke="#DFCEC4" stroke-width="0.1" stroke-miterlimit="10"/>
<path d="M337.1 0.000244141V875.856" stroke="#633E2B" stroke-width="0.1" stroke-miterlimit="10"/>
<path d="M337.1 0.000244141V875.856" stroke="#DFCEC4" stroke-width="0.1" stroke-miterlimit="10"/>
<path d="M806.631 0.000244141V875.856" stroke="#633E2B" stroke-width="0.1" stroke-miterlimit="10"/>
<path d="M806.631 0.000244141V875.856" stroke="#DFCEC4" stroke-width="0.1" stroke-miterlimit="10"/>
<path d="M325.061 0.000244141V875.856" stroke="#633E2B" stroke-width="0.1" stroke-miterlimit="10"/>
<path d="M325.061 0.000244141V875.856" stroke="#DFCEC4" stroke-width="0.1" stroke-miterlimit="10"/>
<path d="M794.592 0.000244141V875.856" stroke="#633E2B" stroke-width="0.1" stroke-miterlimit="10"/>
<path d="M794.592 0.000244141V875.856" stroke="#DFCEC4" stroke-width="0.1" stroke-miterlimit="10"/>
<path d="M313.021 0.000244141V875.856" stroke="#633E2B" stroke-width="0.1" stroke-miterlimit="10"/>
<path d="M313.021 0.000244141V875.856" stroke="#DFCEC4" stroke-width="0.1" stroke-miterlimit="10"/>
<path d="M782.553 0.000244141V875.856" stroke="#633E2B" stroke-width="0.1" stroke-miterlimit="10"/>
<path d="M782.553 0.000244141V875.856" stroke="#DFCEC4" stroke-width="0.1" stroke-miterlimit="10"/>
<path d="M300.982 0.000244141V875.856" stroke="#633E2B" stroke-width="0.1" stroke-miterlimit="10"/>
<path d="M300.982 0.000244141V875.856" stroke="#DFCEC4" stroke-width="0.1" stroke-miterlimit="10"/>
<path d="M770.512 0.000244141V875.856" stroke="#633E2B" stroke-width="0.1" stroke-miterlimit="10"/>
<path d="M770.512 0.000244141V875.856" stroke="#DFCEC4" stroke-width="0.1" stroke-miterlimit="10"/>
<path d="M288.941 0.000244141V875.856" stroke="#633E2B" stroke-width="0.1" stroke-miterlimit="10"/>
<path d="M288.941 0.000244141V875.856" stroke="#DFCEC4" stroke-width="0.1" stroke-miterlimit="10"/>
<path d="M758.473 0.000244141V875.856" stroke="#633E2B" stroke-width="0.1" stroke-miterlimit="10"/>
<path d="M758.473 0.000244141V875.856" stroke="#DFCEC4" stroke-width="0.1" stroke-miterlimit="10"/>
<path d="M276.902 0.000244141V875.856" stroke="#633E2B" stroke-width="0.1" stroke-miterlimit="10"/>
<path d="M276.902 0.000244141V875.856" stroke="#DFCEC4" stroke-width="0.1" stroke-miterlimit="10"/>
<path d="M746.434 0.000244141V875.856" stroke="#633E2B" stroke-width="0.1" stroke-miterlimit="10"/>
<path d="M746.434 0.000244141V875.856" stroke="#DFCEC4" stroke-width="0.1" stroke-miterlimit="10"/>
<path d="M264.863 0.000244141V875.856" stroke="#633E2B" stroke-width="0.1" stroke-miterlimit="10"/>
<path d="M264.863 0.000244141V875.856" stroke="#DFCEC4" stroke-width="0.1" stroke-miterlimit="10"/>
<path d="M734.395 0.000244141V875.856" stroke="#633E2B" stroke-width="0.1" stroke-miterlimit="10"/>
<path d="M734.395 0.000244141V875.856" stroke="#DFCEC4" stroke-width="0.1" stroke-miterlimit="10"/>
<path d="M252.824 0.000244141V875.856" stroke="#633E2B" stroke-width="0.1" stroke-miterlimit="10"/>
<path d="M252.824 0.000244141V875.856" stroke="#DFCEC4" stroke-width="0.1" stroke-miterlimit="10"/>
<path d="M722.355 0.000244141V875.856" stroke="#633E2B" stroke-width="0.1" stroke-miterlimit="10"/>
<path d="M722.355 0.000244141V875.856" stroke="#DFCEC4" stroke-width="0.1" stroke-miterlimit="10"/>
<path d="M240.785 0.000244141V875.856" stroke="#633E2B" stroke-width="0.1" stroke-miterlimit="10"/>
<path d="M240.785 0.000244141V875.856" stroke="#DFCEC4" stroke-width="0.1" stroke-miterlimit="10"/>
<path d="M710.316 0.000244141V875.856" stroke="#633E2B" stroke-width="0.1" stroke-miterlimit="10"/>
<path d="M710.316 0.000244141V875.856" stroke="#DFCEC4" stroke-width="0.1" stroke-miterlimit="10"/>
<path d="M228.746 0.000244141V875.856" stroke="#633E2B" stroke-width="0.1" stroke-miterlimit="10"/>
<path d="M228.746 0.000244141V875.856" stroke="#DFCEC4" stroke-width="0.1" stroke-miterlimit="10"/>
<path d="M698.277 0.000244141V875.856" stroke="#633E2B" stroke-width="0.1" stroke-miterlimit="10"/>
<path d="M698.277 0.000244141V875.856" stroke="#DFCEC4" stroke-width="0.1" stroke-miterlimit="10"/>
<path d="M216.707 0.000244141V875.856" stroke="#633E2B" stroke-width="0.1" stroke-miterlimit="10"/>
<path d="M216.707 0.000244141V875.856" stroke="#DFCEC4" stroke-width="0.1" stroke-miterlimit="10"/>
<path d="M686.238 0.000244141V875.856" stroke="#633E2B" stroke-width="0.1" stroke-miterlimit="10"/>
<path d="M686.238 0.000244141V875.856" stroke="#DFCEC4" stroke-width="0.1" stroke-miterlimit="10"/>
<path d="M204.668 0.000244141V875.856" stroke="#633E2B" stroke-width="0.1" stroke-miterlimit="10"/>
<path d="M204.668 0.000244141V875.856" stroke="#DFCEC4" stroke-width="0.1" stroke-miterlimit="10"/>
<path d="M674.199 0.000244141V875.856" stroke="#633E2B" stroke-width="0.1" stroke-miterlimit="10"/>
<path d="M674.199 0.000244141V875.856" stroke="#DFCEC4" stroke-width="0.1" stroke-miterlimit="10"/>
<path d="M192.629 0.000244141V875.856" stroke="#633E2B" stroke-width="0.1" stroke-miterlimit="10"/>
<path d="M192.629 0.000244141V875.856" stroke="#DFCEC4" stroke-width="0.1" stroke-miterlimit="10"/>
<path d="M662.16 0.000244141V875.856" stroke="#633E2B" stroke-width="0.1" stroke-miterlimit="10"/>
<path d="M662.16 0.000244141V875.856" stroke="#DFCEC4" stroke-width="0.1" stroke-miterlimit="10"/>
<path d="M180.59 0.000244141V875.856" stroke="#633E2B" stroke-width="0.1" stroke-miterlimit="10"/>
<path d="M180.59 0.000244141V875.856" stroke="#DFCEC4" stroke-width="0.1" stroke-miterlimit="10"/>
<path d="M650.119 0.000244141V875.856" stroke="#633E2B" stroke-width="0.1" stroke-miterlimit="10"/>
<path d="M650.119 0.000244141V875.856" stroke="#DFCEC4" stroke-width="0.1" stroke-miterlimit="10"/>
<path d="M168.549 0.000244141V875.856" stroke="#633E2B" stroke-width="0.1" stroke-miterlimit="10"/>
<path d="M168.549 0.000244141V875.856" stroke="#DFCEC4" stroke-width="0.1" stroke-miterlimit="10"/>
<path d="M638.08 0.000244141V875.856" stroke="#633E2B" stroke-width="0.1" stroke-miterlimit="10"/>
<path d="M638.08 0.000244141V875.856" stroke="#DFCEC4" stroke-width="0.1" stroke-miterlimit="10"/>
<path d="M156.51 0.000244141V875.856" stroke="#633E2B" stroke-width="0.1" stroke-miterlimit="10"/>
<path d="M156.51 0.000244141V875.856" stroke="#DFCEC4" stroke-width="0.1" stroke-miterlimit="10"/>
<path d="M626.041 0.000244141V875.856" stroke="#633E2B" stroke-width="0.1" stroke-miterlimit="10"/>
<path d="M626.041 0.000244141V875.856" stroke="#DFCEC4" stroke-width="0.1" stroke-miterlimit="10"/>
<path d="M144.471 0.000244141V875.856" stroke="#633E2B" stroke-width="0.1" stroke-miterlimit="10"/>
<path d="M144.471 0.000244141V875.856" stroke="#DFCEC4" stroke-width="0.1" stroke-miterlimit="10"/>
<path d="M614.002 0.000244141V875.856" stroke="#633E2B" stroke-width="0.1" stroke-miterlimit="10"/>
<path d="M614.002 0.000244141V875.856" stroke="#DFCEC4" stroke-width="0.1" stroke-miterlimit="10"/>
<path d="M132.432 0.000244141V875.856" stroke="#633E2B" stroke-width="0.1" stroke-miterlimit="10"/>
<path d="M132.432 0.000244141V875.856" stroke="#DFCEC4" stroke-width="0.1" stroke-miterlimit="10"/>
<path d="M601.963 0.000244141V875.856" stroke="#633E2B" stroke-width="0.1" stroke-miterlimit="10"/>
<path d="M601.963 0.000244141V875.856" stroke="#DFCEC4" stroke-width="0.1" stroke-miterlimit="10"/>
<path d="M120.393 0.000244141V875.856" stroke="#633E2B" stroke-width="0.1" stroke-miterlimit="10"/>
<path d="M120.393 0.000244141V875.856" stroke="#DFCEC4" stroke-width="0.1" stroke-miterlimit="10"/>
<path d="M589.924 0.000244141V875.856" stroke="#633E2B" stroke-width="0.1" stroke-miterlimit="10"/>
<path d="M589.924 0.000244141V875.856" stroke="#DFCEC4" stroke-width="0.1" stroke-miterlimit="10"/>
<path d="M108.354 0.000244141V875.856" stroke="#633E2B" stroke-width="0.1" stroke-miterlimit="10"/>
<path d="M108.354 0.000244141V875.856" stroke="#DFCEC4" stroke-width="0.1" stroke-miterlimit="10"/>
<path d="M577.885 0.000244141V875.856" stroke="#633E2B" stroke-width="0.1" stroke-miterlimit="10"/>
<path d="M577.885 0.000244141V875.856" stroke="#DFCEC4" stroke-width="0.1" stroke-miterlimit="10"/>
<path d="M96.3145 0.000244141V875.856" stroke="#633E2B" stroke-width="0.1" stroke-miterlimit="10"/>
<path d="M96.3145 0.000244141V875.856" stroke="#DFCEC4" stroke-width="0.1" stroke-miterlimit="10"/>
<path d="M565.846 0.000244141V875.856" stroke="#633E2B" stroke-width="0.1" stroke-miterlimit="10"/>
<path d="M565.846 0.000244141V875.856" stroke="#DFCEC4" stroke-width="0.1" stroke-miterlimit="10"/>
<path d="M84.2754 0.000244141V875.856" stroke="#633E2B" stroke-width="0.1" stroke-miterlimit="10"/>
<path d="M84.2754 0.000244141V875.856" stroke="#DFCEC4" stroke-width="0.1" stroke-miterlimit="10"/>
<path d="M553.807 0.000244141V875.856" stroke="#633E2B" stroke-width="0.1" stroke-miterlimit="10"/>
<path d="M553.807 0.000244141V875.856" stroke="#DFCEC4" stroke-width="0.1" stroke-miterlimit="10"/>
<path d="M72.2363 0.000244141V875.856" stroke="#633E2B" stroke-width="0.1" stroke-miterlimit="10"/>
<path d="M72.2363 0.000244141V875.856" stroke="#DFCEC4" stroke-width="0.1" stroke-miterlimit="10"/>
<path d="M541.766 0.000244141V875.856" stroke="#633E2B" stroke-width="0.1" stroke-miterlimit="10"/>
<path d="M541.766 0.000244141V875.856" stroke="#DFCEC4" stroke-width="0.1" stroke-miterlimit="10"/>
<path d="M60.1973 0.000244141V875.856" stroke="#633E2B" stroke-width="0.1" stroke-miterlimit="10"/>
<path d="M60.1973 0.000244141V875.856" stroke="#DFCEC4" stroke-width="0.1" stroke-miterlimit="10"/>
<path d="M529.727 0.000244141V875.856" stroke="#633E2B" stroke-width="0.1" stroke-miterlimit="10"/>
<path d="M529.727 0.000244141V875.856" stroke="#DFCEC4" stroke-width="0.1" stroke-miterlimit="10"/>
<path d="M48.1562 0.000244141V875.856" stroke="#633E2B" stroke-width="0.1" stroke-miterlimit="10"/>
<path d="M48.1562 0.000244141V875.856" stroke="#DFCEC4" stroke-width="0.1" stroke-miterlimit="10"/>
<path d="M517.688 0.000244141V875.856" stroke="#633E2B" stroke-width="0.1" stroke-miterlimit="10"/>
<path d="M517.688 0.000244141V875.856" stroke="#DFCEC4" stroke-width="0.1" stroke-miterlimit="10"/>
<path d="M36.1172 0.000244141V875.856" stroke="#633E2B" stroke-width="0.1" stroke-miterlimit="10"/>
<path d="M36.1172 0.000244141V875.856" stroke="#DFCEC4" stroke-width="0.1" stroke-miterlimit="10"/>
<path d="M505.648 0.000244141V875.856" stroke="#633E2B" stroke-width="0.1" stroke-miterlimit="10"/>
<path d="M505.648 0.000244141V875.856" stroke="#DFCEC4" stroke-width="0.1" stroke-miterlimit="10"/>
<path d="M24.0781 0.000244141V875.856" stroke="#633E2B" stroke-width="0.1" stroke-miterlimit="10"/>
<path d="M24.0781 0.000244141V875.856" stroke="#DFCEC4" stroke-width="0.1" stroke-miterlimit="10"/>
<path d="M493.609 0.000244141V875.856" stroke="#633E2B" stroke-width="0.1" stroke-miterlimit="10"/>
<path d="M493.609 0.000244141V875.856" stroke="#DFCEC4" stroke-width="0.1" stroke-miterlimit="10"/>
<path d="M12.0391 0.000244141V875.856" stroke="#633E2B" stroke-width="0.1" stroke-miterlimit="10"/>
<path d="M12.0391 0.000244141V875.856" stroke="#DFCEC4" stroke-width="0.1" stroke-miterlimit="10"/>
<path d="M481.57 0.000244141V875.856" stroke="#633E2B" stroke-width="0.1" stroke-miterlimit="10"/>
<path d="M481.57 0.000244141V875.856" stroke="#DFCEC4" stroke-width="0.1" stroke-miterlimit="10"/>
<path d="M1372.47 0.000244141V875.856" stroke="#633E2B" stroke-width="0.1" stroke-miterlimit="10"/>
<path d="M1372.47 0.000244141V875.856" stroke="#DFCEC4" stroke-width="0.1" stroke-miterlimit="10"/>
<path d="M1360.44 0.000244141V875.856" stroke="#633E2B" stroke-width="0.1" stroke-miterlimit="10"/>
<path d="M1360.44 0.000244141V875.856" stroke="#DFCEC4" stroke-width="0.1" stroke-miterlimit="10"/>
<path d="M1348.4 0.000244141V875.856" stroke="#633E2B" stroke-width="0.1" stroke-miterlimit="10"/>
<path d="M1348.4 0.000244141V875.856" stroke="#DFCEC4" stroke-width="0.1" stroke-miterlimit="10"/>
<path d="M1805.89 0.000244141V875.856" stroke="#633E2B" stroke-width="0.1" stroke-miterlimit="10"/>
<path d="M1805.89 0.000244141V875.856" stroke="#DFCEC4" stroke-width="0.1" stroke-miterlimit="10"/>
<path d="M1817.93 0.000244141V875.856" stroke="#633E2B" stroke-width="0.1" stroke-miterlimit="10"/>
<path d="M1817.93 0.000244141V875.856" stroke="#DFCEC4" stroke-width="0.1" stroke-miterlimit="10"/>
<path d="M1829.97 0.000244141V875.856" stroke="#633E2B" stroke-width="0.1" stroke-miterlimit="10"/>
<path d="M1829.97 0.000244141V875.856" stroke="#DFCEC4" stroke-width="0.1" stroke-miterlimit="10"/>
<path d="M1336.36 0.000244141V875.856" stroke="#633E2B" stroke-width="0.1" stroke-miterlimit="10"/>
<path d="M1336.36 0.000244141V875.856" stroke="#DFCEC4" stroke-width="0.1" stroke-miterlimit="10"/>
<path d="M1793.85 0.000244141V875.856" stroke="#633E2B" stroke-width="0.1" stroke-miterlimit="10"/>
<path d="M1793.85 0.000244141V875.856" stroke="#DFCEC4" stroke-width="0.1" stroke-miterlimit="10"/>
<path d="M1324.32 0.000244141V875.856" stroke="#633E2B" stroke-width="0.1" stroke-miterlimit="10"/>
<path d="M1324.32 0.000244141V875.856" stroke="#DFCEC4" stroke-width="0.1" stroke-miterlimit="10"/>
<path d="M1781.81 0.000244141V875.856" stroke="#633E2B" stroke-width="0.1" stroke-miterlimit="10"/>
<path d="M1781.81 0.000244141V875.856" stroke="#DFCEC4" stroke-width="0.1" stroke-miterlimit="10"/>
<path d="M1312.28 0.000244141V875.856" stroke="#633E2B" stroke-width="0.1" stroke-miterlimit="10"/>
<path d="M1312.28 0.000244141V875.856" stroke="#DFCEC4" stroke-width="0.1" stroke-miterlimit="10"/>
<path d="M1769.77 0.000244141V875.856" stroke="#633E2B" stroke-width="0.1" stroke-miterlimit="10"/>
<path d="M1769.77 0.000244141V875.856" stroke="#DFCEC4" stroke-width="0.1" stroke-miterlimit="10"/>
<path d="M1300.24 0.000244141V875.856" stroke="#633E2B" stroke-width="0.1" stroke-miterlimit="10"/>
<path d="M1300.24 0.000244141V875.856" stroke="#DFCEC4" stroke-width="0.1" stroke-miterlimit="10"/>
<path d="M1757.73 0.000244141V875.856" stroke="#633E2B" stroke-width="0.1" stroke-miterlimit="10"/>
<path d="M1757.73 0.000244141V875.856" stroke="#DFCEC4" stroke-width="0.1" stroke-miterlimit="10"/>
<path d="M1288.2 0.000244141V875.856" stroke="#633E2B" stroke-width="0.1" stroke-miterlimit="10"/>
<path d="M1288.2 0.000244141V875.856" stroke="#DFCEC4" stroke-width="0.1" stroke-miterlimit="10"/>
<path d="M1745.69 0.000244141V875.856" stroke="#633E2B" stroke-width="0.1" stroke-miterlimit="10"/>
<path d="M1745.69 0.000244141V875.856" stroke="#DFCEC4" stroke-width="0.1" stroke-miterlimit="10"/>
<path d="M1276.16 0.000244141V875.856" stroke="#633E2B" stroke-width="0.1" stroke-miterlimit="10"/>
<path d="M1276.16 0.000244141V875.856" stroke="#DFCEC4" stroke-width="0.1" stroke-miterlimit="10"/>
<path d="M1264.12 0.000244141V875.856" stroke="#633E2B" stroke-width="0.1" stroke-miterlimit="10"/>
<path d="M1264.12 0.000244141V875.856" stroke="#DFCEC4" stroke-width="0.1" stroke-miterlimit="10"/>
<path d="M1733.65 0.000244141V875.856" stroke="#633E2B" stroke-width="0.1" stroke-miterlimit="10"/>
<path d="M1733.65 0.000244141V875.856" stroke="#DFCEC4" stroke-width="0.1" stroke-miterlimit="10"/>
<path d="M1252.08 0.000244141V875.856" stroke="#633E2B" stroke-width="0.1" stroke-miterlimit="10"/>
<path d="M1252.08 0.000244141V875.856" stroke="#DFCEC4" stroke-width="0.1" stroke-miterlimit="10"/>
<path d="M1721.61 0.000244141V875.856" stroke="#633E2B" stroke-width="0.1" stroke-miterlimit="10"/>
<path d="M1721.61 0.000244141V875.856" stroke="#DFCEC4" stroke-width="0.1" stroke-miterlimit="10"/>
<path d="M1240.04 0.000244141V875.856" stroke="#633E2B" stroke-width="0.1" stroke-miterlimit="10"/>
<path d="M1240.04 0.000244141V875.856" stroke="#DFCEC4" stroke-width="0.1" stroke-miterlimit="10"/>
<path d="M1709.57 0.000244141V875.856" stroke="#633E2B" stroke-width="0.1" stroke-miterlimit="10"/>
<path d="M1709.57 0.000244141V875.856" stroke="#DFCEC4" stroke-width="0.1" stroke-miterlimit="10"/>
<path d="M1228 0.000244141V875.856" stroke="#633E2B" stroke-width="0.1" stroke-miterlimit="10"/>
<path d="M1228 0.000244141V875.856" stroke="#DFCEC4" stroke-width="0.1" stroke-miterlimit="10"/>
<path d="M1697.54 0.000244141V875.856" stroke="#633E2B" stroke-width="0.1" stroke-miterlimit="10"/>
<path d="M1697.54 0.000244141V875.856" stroke="#DFCEC4" stroke-width="0.1" stroke-miterlimit="10"/>
<path d="M1215.96 0.000244141V875.856" stroke="#633E2B" stroke-width="0.1" stroke-miterlimit="10"/>
<path d="M1215.96 0.000244141V875.856" stroke="#DFCEC4" stroke-width="0.1" stroke-miterlimit="10"/>
<path d="M1685.5 0.000244141V875.856" stroke="#633E2B" stroke-width="0.1" stroke-miterlimit="10"/>
<path d="M1685.5 0.000244141V875.856" stroke="#DFCEC4" stroke-width="0.1" stroke-miterlimit="10"/>
<path d="M1203.93 0.000244141V875.856" stroke="#633E2B" stroke-width="0.1" stroke-miterlimit="10"/>
<path d="M1203.93 0.000244141V875.856" stroke="#DFCEC4" stroke-width="0.1" stroke-miterlimit="10"/>
<path d="M1673.46 0.000244141V875.856" stroke="#633E2B" stroke-width="0.1" stroke-miterlimit="10"/>
<path d="M1673.46 0.000244141V875.856" stroke="#DFCEC4" stroke-width="0.1" stroke-miterlimit="10"/>
<path d="M1191.89 0.000244141V875.856" stroke="#633E2B" stroke-width="0.1" stroke-miterlimit="10"/>
<path d="M1191.89 0.000244141V875.856" stroke="#DFCEC4" stroke-width="0.1" stroke-miterlimit="10"/>
<path d="M1661.42 0.000244141V875.856" stroke="#633E2B" stroke-width="0.1" stroke-miterlimit="10"/>
<path d="M1661.42 0.000244141V875.856" stroke="#DFCEC4" stroke-width="0.1" stroke-miterlimit="10"/>
<path d="M1179.85 0.000244141V875.856" stroke="#633E2B" stroke-width="0.1" stroke-miterlimit="10"/>
<path d="M1179.85 0.000244141V875.856" stroke="#DFCEC4" stroke-width="0.1" stroke-miterlimit="10"/>
<path d="M1649.38 0.000244141V875.856" stroke="#633E2B" stroke-width="0.1" stroke-miterlimit="10"/>
<path d="M1649.38 0.000244141V875.856" stroke="#DFCEC4" stroke-width="0.1" stroke-miterlimit="10"/>
<path d="M1167.81 0.000244141V875.856" stroke="#633E2B" stroke-width="0.1" stroke-miterlimit="10"/>
<path d="M1167.81 0.000244141V875.856" stroke="#DFCEC4" stroke-width="0.1" stroke-miterlimit="10"/>
<path d="M1637.34 0.000244141V875.856" stroke="#633E2B" stroke-width="0.1" stroke-miterlimit="10"/>
<path d="M1637.34 0.000244141V875.856" stroke="#DFCEC4" stroke-width="0.1" stroke-miterlimit="10"/>
<path d="M1155.77 0.000244141V875.856" stroke="#633E2B" stroke-width="0.1" stroke-miterlimit="10"/>
<path d="M1155.77 0.000244141V875.856" stroke="#DFCEC4" stroke-width="0.1" stroke-miterlimit="10"/>
<path d="M1625.3 0.000244141V875.856" stroke="#633E2B" stroke-width="0.1" stroke-miterlimit="10"/>
<path d="M1625.3 0.000244141V875.856" stroke="#DFCEC4" stroke-width="0.1" stroke-miterlimit="10"/>
<path d="M1143.73 0.000244141V875.856" stroke="#633E2B" stroke-width="0.1" stroke-miterlimit="10"/>
<path d="M1143.73 0.000244141V875.856" stroke="#DFCEC4" stroke-width="0.1" stroke-miterlimit="10"/>
<path d="M1613.26 0.000244141V875.856" stroke="#633E2B" stroke-width="0.1" stroke-miterlimit="10"/>
<path d="M1613.26 0.000244141V875.856" stroke="#DFCEC4" stroke-width="0.1" stroke-miterlimit="10"/>
<path d="M1131.69 0.000244141V875.856" stroke="#633E2B" stroke-width="0.1" stroke-miterlimit="10"/>
<path d="M1131.69 0.000244141V875.856" stroke="#DFCEC4" stroke-width="0.1" stroke-miterlimit="10"/>
<path d="M1601.22 0.000244141V875.856" stroke="#633E2B" stroke-width="0.1" stroke-miterlimit="10"/>
<path d="M1601.22 0.000244141V875.856" stroke="#DFCEC4" stroke-width="0.1" stroke-miterlimit="10"/>
<path d="M1119.65 0.000244141V875.856" stroke="#633E2B" stroke-width="0.1" stroke-miterlimit="10"/>
<path d="M1119.65 0.000244141V875.856" stroke="#DFCEC4" stroke-width="0.1" stroke-miterlimit="10"/>
<path d="M1589.18 0.000244141V875.856" stroke="#633E2B" stroke-width="0.1" stroke-miterlimit="10"/>
<path d="M1589.18 0.000244141V875.856" stroke="#DFCEC4" stroke-width="0.1" stroke-miterlimit="10"/>
<path d="M1107.61 0.000244141V875.856" stroke="#633E2B" stroke-width="0.1" stroke-miterlimit="10"/>
<path d="M1107.61 0.000244141V875.856" stroke="#DFCEC4" stroke-width="0.1" stroke-miterlimit="10"/>
<path d="M1577.14 0.000244141V875.856" stroke="#633E2B" stroke-width="0.1" stroke-miterlimit="10"/>
<path d="M1577.14 0.000244141V875.856" stroke="#DFCEC4" stroke-width="0.1" stroke-miterlimit="10"/>
<path d="M1095.57 0.000244141V875.856" stroke="#633E2B" stroke-width="0.1" stroke-miterlimit="10"/>
<path d="M1095.57 0.000244141V875.856" stroke="#DFCEC4" stroke-width="0.1" stroke-miterlimit="10"/>
<path d="M1565.1 0.000244141V875.856" stroke="#633E2B" stroke-width="0.1" stroke-miterlimit="10"/>
<path d="M1565.1 0.000244141V875.856" stroke="#DFCEC4" stroke-width="0.1" stroke-miterlimit="10"/>
<path d="M1083.53 0.000244141V875.856" stroke="#633E2B" stroke-width="0.1" stroke-miterlimit="10"/>
<path d="M1083.53 0.000244141V875.856" stroke="#DFCEC4" stroke-width="0.1" stroke-miterlimit="10"/>
<path d="M1553.06 0.000244141V875.856" stroke="#633E2B" stroke-width="0.1" stroke-miterlimit="10"/>
<path d="M1553.06 0.000244141V875.856" stroke="#DFCEC4" stroke-width="0.1" stroke-miterlimit="10"/>
<path d="M1071.49 0.000244141V875.856" stroke="#633E2B" stroke-width="0.1" stroke-miterlimit="10"/>
<path d="M1071.49 0.000244141V875.856" stroke="#DFCEC4" stroke-width="0.1" stroke-miterlimit="10"/>
<path d="M1541.03 0.000244141V875.856" stroke="#633E2B" stroke-width="0.1" stroke-miterlimit="10"/>
<path d="M1541.03 0.000244141V875.856" stroke="#DFCEC4" stroke-width="0.1" stroke-miterlimit="10"/>
<path d="M1059.46 0.000244141V875.856" stroke="#633E2B" stroke-width="0.1" stroke-miterlimit="10"/>
<path d="M1059.46 0.000244141V875.856" stroke="#DFCEC4" stroke-width="0.1" stroke-miterlimit="10"/>
<path d="M1528.99 0.000244141V875.856" stroke="#633E2B" stroke-width="0.1" stroke-miterlimit="10"/>
<path d="M1528.99 0.000244141V875.856" stroke="#DFCEC4" stroke-width="0.1" stroke-miterlimit="10"/>
<path d="M1047.42 0.000244141V875.856" stroke="#633E2B" stroke-width="0.1" stroke-miterlimit="10"/>
<path d="M1047.42 0.000244141V875.856" stroke="#DFCEC4" stroke-width="0.1" stroke-miterlimit="10"/>
<path d="M1516.95 0.000244141V875.856" stroke="#633E2B" stroke-width="0.1" stroke-miterlimit="10"/>
<path d="M1516.95 0.000244141V875.856" stroke="#DFCEC4" stroke-width="0.1" stroke-miterlimit="10"/>
<path d="M1035.38 0.000244141V875.856" stroke="#633E2B" stroke-width="0.1" stroke-miterlimit="10"/>
<path d="M1035.38 0.000244141V875.856" stroke="#DFCEC4" stroke-width="0.1" stroke-miterlimit="10"/>
<path d="M1504.91 0.000244141V875.856" stroke="#633E2B" stroke-width="0.1" stroke-miterlimit="10"/>
<path d="M1504.91 0.000244141V875.856" stroke="#DFCEC4" stroke-width="0.1" stroke-miterlimit="10"/>
<path d="M1023.34 0.000244141V875.856" stroke="#633E2B" stroke-width="0.1" stroke-miterlimit="10"/>
<path d="M1023.34 0.000244141V875.856" stroke="#DFCEC4" stroke-width="0.1" stroke-miterlimit="10"/>
<path d="M1492.87 0.000244141V875.856" stroke="#633E2B" stroke-width="0.1" stroke-miterlimit="10"/>
<path d="M1492.87 0.000244141V875.856" stroke="#DFCEC4" stroke-width="0.1" stroke-miterlimit="10"/>
<path d="M1011.3 0.000244141V875.856" stroke="#633E2B" stroke-width="0.1" stroke-miterlimit="10"/>
<path d="M1011.3 0.000244141V875.856" stroke="#DFCEC4" stroke-width="0.1" stroke-miterlimit="10"/>
<path d="M1480.83 0.000244141V875.856" stroke="#633E2B" stroke-width="0.1" stroke-miterlimit="10"/>
<path d="M1480.83 0.000244141V875.856" stroke="#DFCEC4" stroke-width="0.1" stroke-miterlimit="10"/>
<path d="M999.258 0.000244141V875.856" stroke="#633E2B" stroke-width="0.1" stroke-miterlimit="10"/>
<path d="M999.258 0.000244141V875.856" stroke="#DFCEC4" stroke-width="0.1" stroke-miterlimit="10"/>
<path d="M1468.79 0.000244141V875.856" stroke="#633E2B" stroke-width="0.1" stroke-miterlimit="10"/>
<path d="M1468.79 0.000244141V875.856" stroke="#DFCEC4" stroke-width="0.1" stroke-miterlimit="10"/>
<path d="M987.219 0.000244141V875.856" stroke="#633E2B" stroke-width="0.1" stroke-miterlimit="10"/>
<path d="M987.219 0.000244141V875.856" stroke="#DFCEC4" stroke-width="0.1" stroke-miterlimit="10"/>
<path d="M1456.75 0.000244141V875.856" stroke="#633E2B" stroke-width="0.1" stroke-miterlimit="10"/>
<path d="M1456.75 0.000244141V875.856" stroke="#DFCEC4" stroke-width="0.1" stroke-miterlimit="10"/>
<path d="M975.18 0.000244141V875.856" stroke="#633E2B" stroke-width="0.1" stroke-miterlimit="10"/>
<path d="M975.18 0.000244141V875.856" stroke="#DFCEC4" stroke-width="0.1" stroke-miterlimit="10"/>
<path d="M1444.71 0.000244141V875.856" stroke="#633E2B" stroke-width="0.1" stroke-miterlimit="10"/>
<path d="M1444.71 0.000244141V875.856" stroke="#DFCEC4" stroke-width="0.1" stroke-miterlimit="10"/>
<path d="M963.141 0.000244141V875.856" stroke="#633E2B" stroke-width="0.1" stroke-miterlimit="10"/>
<path d="M963.141 0.000244141V875.856" stroke="#DFCEC4" stroke-width="0.1" stroke-miterlimit="10"/>
<path d="M1432.67 0.000244141V875.856" stroke="#633E2B" stroke-width="0.1" stroke-miterlimit="10"/>
<path d="M1432.67 0.000244141V875.856" stroke="#DFCEC4" stroke-width="0.1" stroke-miterlimit="10"/>
<path d="M951.102 0.000244141V875.856" stroke="#633E2B" stroke-width="0.1" stroke-miterlimit="10"/>
<path d="M951.102 0.000244141V875.856" stroke="#DFCEC4" stroke-width="0.1" stroke-miterlimit="10"/>
<path d="M1420.63 0.000244141V875.856" stroke="#633E2B" stroke-width="0.1" stroke-miterlimit="10"/>
<path d="M1420.63 0.000244141V875.856" stroke="#DFCEC4" stroke-width="0.1" stroke-miterlimit="10"/>
<path d="M939.062 0.000244141V875.856" stroke="#633E2B" stroke-width="0.1" stroke-miterlimit="10"/>
<path d="M939.062 0.000244141V875.856" stroke="#DFCEC4" stroke-width="0.1" stroke-miterlimit="10"/>
<path d="M1408.59 0.000244141V875.856" stroke="#633E2B" stroke-width="0.1" stroke-miterlimit="10"/>
<path d="M1408.59 0.000244141V875.856" stroke="#DFCEC4" stroke-width="0.1" stroke-miterlimit="10"/>
<path d="M927.023 0.000244141V875.856" stroke="#633E2B" stroke-width="0.1" stroke-miterlimit="10"/>
<path d="M927.023 0.000244141V875.856" stroke="#DFCEC4" stroke-width="0.1" stroke-miterlimit="10"/>
<path d="M1396.55 0.000244141V875.856" stroke="#633E2B" stroke-width="0.1" stroke-miterlimit="10"/>
<path d="M1396.55 0.000244141V875.856" stroke="#DFCEC4" stroke-width="0.1" stroke-miterlimit="10"/>
<path d="M914.984 0.000244141V875.856" stroke="#633E2B" stroke-width="0.1" stroke-miterlimit="10"/>
<path d="M914.984 0.000244141V875.856" stroke="#DFCEC4" stroke-width="0.1" stroke-miterlimit="10"/>
<path d="M1384.52 0.000244141V875.856" stroke="#633E2B" stroke-width="0.1" stroke-miterlimit="10"/>
<path d="M1384.52 0.000244141V875.856" stroke="#DFCEC4" stroke-width="0.1" stroke-miterlimit="10"/>
</g>
<defs>
<clipPath id="clip0_2736_39">
<rect width="1840" height="875.856" fill="white"/>
</clipPath>
</defs>
</svg>
