<svg width="44" height="44" viewBox="0 0 44 44" fill="none" xmlns="http://www.w3.org/2000/svg">
<path d="M38.5547 19.6308C39.1972 18.0578 39.412 16.3429 39.1771 14.6601C38.9421 12.9773 38.266 11.3867 37.2172 10.0499C36.1685 8.7131 34.7846 7.67773 33.2061 7.04901C31.6276 6.42028 29.9108 6.22061 28.2301 6.47029C27.1886 5.12866 25.8106 4.08653 24.236 3.44971C22.6615 2.81289 20.9465 2.60407 19.2651 2.84444C17.5837 3.08481 15.9959 3.76581 14.6629 4.8183C13.3298 5.87079 12.299 7.25729 11.6751 8.83701C9.99168 9.06744 8.39923 9.73943 7.05961 10.7847C5.71998 11.8299 4.68094 13.2112 4.04805 14.788C3.41516 16.3649 3.211 18.0813 3.4563 19.7626C3.7016 21.444 4.38763 23.0304 5.44467 24.3608C4.92885 25.6248 4.68785 26.9842 4.73768 28.3485C4.78752 29.7129 5.12704 31.0511 5.7337 32.2741C6.34036 33.4972 7.20029 34.5772 8.25637 35.4425C9.31245 36.3077 10.5405 36.9384 11.859 37.2926C12.6763 37.5163 13.5194 37.6319 14.3667 37.6364C14.8367 37.6359 15.306 37.6009 15.7709 37.5315C16.8127 38.8727 18.1907 39.9143 19.7651 40.5508C21.3396 41.1872 23.0544 41.3957 24.7355 41.1552C26.4166 40.9147 28.0041 40.2336 29.3369 39.1812C30.6697 38.1288 31.7003 36.7426 32.3242 35.1631C34.0077 34.9327 35.6001 34.2607 36.9397 33.2154C38.2793 32.1702 39.3184 30.7889 39.9513 29.2121C40.5842 27.6352 40.7883 25.9188 40.543 24.2375C40.2977 22.5561 39.6117 20.9697 38.5547 19.6393V19.6308ZM24.7497 23.5839L21.9997 25.172L19.2497 23.5839V20.4076L21.9997 18.8195L24.7497 20.4076V23.5839ZM31.427 9.35091C33.1596 9.81409 34.6427 10.936 35.5598 12.4773C36.4768 14.0186 36.7553 15.8572 36.3358 17.6009C36.1725 17.4926 36.0075 17.3878 35.8356 17.2898L28.1872 12.8658C27.9781 12.7451 27.741 12.6815 27.4997 12.6815C27.2583 12.6815 27.0212 12.7451 26.8122 12.8658L19.2497 17.2331V14.0568L26.2106 10.0384C26.9915 9.58482 27.8546 9.29051 28.75 9.17251C29.6454 9.0545 30.5552 9.11514 31.427 9.35091ZM7.02076 14.9368C7.89722 13.4087 9.33013 12.2781 11.0203 11.7812C11.0083 11.9772 10.9997 12.1731 10.9997 12.3708V21.2017C10.9996 21.4431 11.0631 21.6803 11.1838 21.8894C11.3045 22.0985 11.4781 22.2721 11.6872 22.3928L19.2497 26.7584L16.4997 28.3551L9.53873 24.3281C7.95973 23.4164 6.80756 21.9148 6.33567 20.1536C5.86379 18.3924 6.11084 16.5159 7.02248 14.9368H7.02076ZM23.3747 38.4958C21.6146 38.5005 19.9204 37.8264 18.6447 36.6137C18.8165 36.5261 18.9884 36.4333 19.1603 36.3336L26.8122 31.9181C27.021 31.7975 27.1944 31.6242 27.3151 31.4154C27.4358 31.2067 27.4994 30.9698 27.4997 30.7287V21.9958L30.2497 23.5839V31.6208C30.2497 33.4441 29.5253 35.1928 28.236 36.4821C26.9467 37.7714 25.198 38.4958 23.3747 38.4958Z" fill="#0F2FFF"/>
</svg>
